:SAMPLES-PER-SECOND 30
:FULLY-SPECIFIED
:DEGREES
190
root  8.281933041 38.93488786 -1.358928924 -50.22601318 -87.91570282 53.64697266
lowerback  17.20929909 3.901010036 -2.717149973
upperback  5.830009937 4.339970112 -0.05732129887
thorax  -3.584429979 1.993710041 0.612342
lowerneck  -2.531699896 5.696489811 -3.652699947
upperneck  8.865969658 7.876329899 -1.514870048
head  3.201329947 3.689169884 0.4044530094
lclavicle  0 -9.442270133e-015 7.951389973e-016
lhumerus  12.59910011 -9.233420372 78.43560028
lradius  2.568968867e-031 -2.422652058e-031 136.6790009
lwrist  -1.765562519e-030 -1.765562519e-031 4.864220142
lhand  -1.496451383e-031 -27.76390076 20.11240005
lfingers  90 7.125020027 -90
lthumb  89.89689403 5.08795885 91.16245106
rclavicle  0 -9.442270133e-015 7.951389973e-016
rhumerus  30.79339981 23.68129921 -69.97599792
rradius  -2.195185524e-031 2.76586416e-031 128.4380035
rwrist  1.059337512e-030 -0 -3.946069956
rhand  -7.920061211e-032 -33.2840004 9.303460121
rfingers  -90 -7.125020027 -90
rthumb  -92.93752616 -24.25625642 -97.11982154
rfemur  -14.96850014 13.70330048 5.260900021
rtibia  -0 0 56.85229874
rfoot  -0 -18.09110069 -18.35210037
rtoes  5.373923086 19.29304026 -105.8922705
lfemur  -39.20949936 0.1336700022 -11.19610023
ltibia  -0 0 42.78210068
lfoot  -0 -0.03637909889 -8.051549911
ltoes  -4.250644065 -19.5611806 -102.515957
191
root  8.448155471 39.15933324 -1.487255566 -19.78399658 -85.89720154 23.77301025
lowerback  17.6984005 3.912440062 -2.668159962
upperback  5.918829918 4.354149818 0.1547520012
thorax  -3.760529995 1.998340011 0.779918015
lowerneck  -3.839319944 5.126009941 -3.67524004
upperneck  9.290300369 7.204820156 -1.504500031
head  3.605119944 3.33874011 0.4445450008
lclavicle  0 -9.442270133e-015 7.951389973e-016
lhumerus  13.00399971 -9.699580193 79.16239929
lradius  2.564143562e-031 -2.427758603e-031 136.5650024
lwrist  -7.062250077e-031 -1.765562519e-031 6.340620041
lhand  -1.496451383e-031 -27.76390076 20.11240005
lfingers  90 7.125020027 -90
lthumb  89.89689403 5.08795885 91.16245106
rclavicle  0 -9.442270133e-015 7.951389973e-016
rhumerus  30.61779976 22.41580009 -69.18280029
rradius  -2.220771884e-031 2.745362685e-031 128.9700012
rwrist  7.062250077e-031 -1.765562519e-031 -3.979110003
rhand  -7.920061211e-032 -33.2840004 9.303460121
rfingers  -90 -7.125020027 -90
rthumb  -92.93752616 -24.25625642 -97.11982154
rfemur  -16.20030022 12.90569973 5.628859997
rtibia  -0 0 58.15599823
rfoot  -0 -15.39820004 -18.8409996
rtoes  5.373923086 19.29304026 -105.8922705
lfemur  -39.63190079 0.5384830236 -11.78320026
ltibia  -0 0 40.54249954
lfoot  -0 2.52828002 -9.793259621
ltoes  -4.250644065 -19.5611806 -102.515957
192
root  8.595422309 39.36911155 -1.608006598 -8.747009277 -83.5963974 13.04302979
lowerback  20.06349945 4.155360222 -5.735980034
upperback  3.996439934 4.291989803 3.346630096
thorax  -7.54362011 2.139400005 5.79531002
lowerneck  -0.8092790246 5.299330235 -7.906690121
upperneck  9.984060287 7.427869797 -2.091830015
head  3.14557004 3.245840073 0.8704159856
lclavicle  0 -9.442270133e-015 7.951389973e-016
lhumerus  8.021289825 -7.733290195 84.67700195
lradius  2.585357396e-031 -2.405155124e-031 137.0679932
lwrist  -7.062250077e-031 -1.765562519e-031 8.480420113
lhand  -1.496451383e-031 -27.76390076 20.11240005
lfingers  90 7.125020027 -90
lthumb  89.89689403 5.08795885 91.16245106
rclavicle  0 -9.442270133e-015 7.951389973e-016
rhumerus  27.99419975 24.98399925 -65.63030243
rradius  -2.256849304e-031 2.715782623e-031 129.727005
rwrist  1.412450015e-030 -1.765562519e-031 -5.138299942
rhand  -7.920061211e-032 -33.2840004 9.303460121
rfingers  -90 -7.125020027 -90
rthumb  -92.93752616 -24.25625642 -97.11982154
rfemur  -17.2567997 12.35789967 6.22740984
rtibia  -0 0 59.47240067
rfoot  -0 -12.05440044 -19.54649925
rtoes  5.373923086 19.29304026 -105.8922705
lfemur  -39.65439987 1.149590015 -12.26720047
ltibia  -0 0 38.2519989
lfoot  -0 4.919020176 -11.1427002
ltoes  -4.250644065 -19.5611806 -102.515957
193
root  8.730066855 39.5599996 -1.720071027 -4.520019531 -81.2806015 8.849975586
lowerback  20.44239998 3.510930061 -3.974479914
upperback  4.277770042 3.704360008 2.393150091
thorax  -7.177279949 1.78410995 3.893909931
lowerneck  -1.18859005 5.052909851 -7.16836977
upperneck  9.808179855 7.055789948 -1.291839957
head  3.157540083 3.132760048 1.008990049
lclavicle  0 -9.442270133e-015 7.951389973e-016
lhumerus  8.494070053 -8.775139809 83.15100098
lradius  2.554291755e-031 -2.43812175e-031 136.3329926
lwrist  -1.412450015e-030 -3.531125038e-031 7.111519814
lhand  -1.496451383e-031 -27.76390076 20.11240005
lfingers  90 7.125020027 -90
lthumb  89.89689403 5.08795885 91.16245106
rclavicle  0 -9.442270133e-015 7.951389973e-016
rhumerus  27.87360001 23.85059929 -66.80979919
rradius  -2.259407907e-031 2.713654353e-031 129.7810059
rwrist  1.059337512e-030 -0 -4.852459908
rhand  -7.920061211e-032 -33.2840004 9.303460121
rfingers  -90 -7.125020027 -90
rthumb  -92.93752616 -24.25625642 -97.11982154
rfemur  -18.12660027 12.08780003 6.677959919
rtibia  -0 0 60.82400131
rfoot  -0 -8.702389717 -20.00589943
rtoes  5.373923086 19.29304026 -105.8922705
lfemur  -39.29130173 2.097419977 -13.03439999
ltibia  -0 0 36.2262001
lfoot  -0 6.427420139 -11.67029953
ltoes  -4.250644065 -19.5611806 -102.515957
194
root  8.84439964 39.71822243 -1.846393262 -3.166992188 -79.04219818 7.661987305
lowerback  20.9178009 2.944819927 -1.972740054
upperback  4.089399815 3.266249895 0.9064940214
thorax  -7.389999866 1.525810003 1.240350008
lowerneck  -0.6490240097 4.708680153 -5.688379765
upperneck  9.844960213 6.408929825 -0.1513299942
head  3.090500116 2.914720058 1.09702003
lclavicle  0 -9.442270133e-015 7.951389973e-016
lhumerus  8.668239594 -10.2802 81.09600067
lradius  2.53029778e-031 -2.463013841e-031 135.7720032
lwrist  -7.062250077e-031 -1.765562519e-031 7.716370106
lhand  -1.496451383e-031 -27.76390076 20.11240005
lfingers  90 7.125020027 -90
lthumb  89.89689403 5.08795885 91.16245106
rclavicle  0 -9.442270133e-015 7.951389973e-016
rhumerus  26.52599907 22.32530022 -68.92079926
rradius  -2.25599575e-031 2.71649171e-031 129.7089996
rwrist  3.531125038e-031 -0 -4.309840202
rhand  -7.920061211e-032 -33.2840004 9.303460121
rfingers  -90 -7.125020027 -90
rthumb  -92.93752616 -24.25625642 -97.11982154
rfemur  -19.30900002 12.01179981 6.782179832
rtibia  -0 0 62.3044014
rfoot  -0 -5.576290131 -20.27029991
rtoes  5.373923086 19.29304026 -105.8922705
lfemur  -38.95270157 3.203069925 -14.08889961
ltibia  -0 0 34.64099884
lfoot  -0 6.833839893 -11.00699997
ltoes  -4.250644065 -19.5611806 -102.515957
195
root  8.949533598 39.84933388 -1.97397555 -3.914001465 -76.91300201 8.661987305
lowerback  21.09199905 2.373519897 -0.3484250009
upperback  4.025539875 2.732840061 -0.7742040157
thorax  -7.366300106 1.221480012 -1.361140013
lowerneck  -0.1796250045 4.411359787 -4.221039772
upperneck  9.790940285 5.82942009 1.140759945
head  2.999989986 2.730020046 1.236889958
lclavicle  0 -9.442270133e-015 7.951389973e-016
lhumerus  9.231160164 -11.57979965 78.64129639
lradius  2.506060575e-031 -2.487670483e-031 135.2109985
lwrist  -7.062250077e-031 -1.765562519e-031 9.053629875
lhand  -1.496451383e-031 -27.76390076 20.11240005
lfingers  90 7.125020027 -90
lthumb  89.89689403 5.08795885 91.16245106
rclavicle  0 -9.442270133e-015 7.951389973e-016
rhumerus  25.46689987 20.61750031 -71.04199982
rradius  -2.248305922e-031 2.722859622e-031 129.5469971
rwrist  7.062250077e-031 -1.765562519e-031 -3.528680086
rhand  -7.920061211e-032 -33.2840004 9.303460121
rfingers  -90 -7.125020027 -90
rthumb  -92.93752616 -24.25625642 -97.11982154
rfemur  -20.73430061 11.94480038 6.310200214
rtibia  -0 0 63.95029831
rfoot  -0 -2.628499985 -20.04439926
rtoes  5.373923086 19.29304026 -105.8922705
lfemur  -38.65190125 4.324130058 -15.58329964
ltibia  -0 0 33.70769882
lfoot  -0 5.881830215 -10.13920021
ltoes  -4.250644065 -19.5611806 -102.515957
196
root  9.061600092 39.95088893 -2.085684416 -5.007019043 -74.87380219 9.973022461
lowerback  21.06690025 1.910640001 1.011459947
upperback  4.299200058 2.262439966 -2.521640062
thorax  -6.930679798 0.9553750157 -3.895740032
lowerneck  -0.6184449792 4.034039974 -2.201080084
upperneck  9.866510391 5.188930035 2.182569981
head  3.147399902 2.523089886 1.230739951
lclavicle  0 -9.442270133e-015 7.951389973e-016
lhumerus  10.63650036 -12.9296999 75.89769745
lradius  2.478951208e-031 -2.514685854e-031 134.5899963
lwrist  -7.062250077e-031 -1.765562519e-031 10.54749966
lhand  -1.496451383e-031 -27.76390076 20.11240005
lfingers  90 7.125020027 -90
lthumb  89.89689403 5.08795885 91.16245106
rclavicle  0 -9.442270133e-015 7.951389973e-016
rhumerus  25.01040077 19.08939934 -72.67780304
rradius  -2.237071846e-031 2.732096923e-031 129.3110046
rwrist  7.062250077e-031 -0 -4.051280022
rhand  -7.920061211e-032 -33.2840004 9.303460121
rfingers  -90 -7.125020027 -90
rthumb  -92.93752616 -24.25625642 -97.11982154
rfemur  -22.20479965 11.81270027 5.597290039
rtibia  -0 0 65.74089813
rfoot  -0 -0.1552280039 -19.02759933
rtoes  5.373923086 19.29304026 -105.8922705
lfemur  -38.40890121 5.52782011 -17.25029945
ltibia  -0 0 33.58179855
lfoot  -0 4.14068985 -9.601380348
ltoes  -4.250644065 -19.5611806 -102.515957
197
root  9.183689178 40.02488805 -2.186706686 -5.846008301 -72.87580109 10.98400879
lowerback  20.9314003 1.360769987 2.000540018
upperback  4.564109802 1.631090045 -3.896179914
thorax  -6.538559914 0.6301320195 -5.792019844
lowerneck  -0.7679380178 3.875430107 -0.7779099941
upperneck  9.846730232 4.846380234 3.041429996
head  3.190599918 2.433890104 1.260800004
lclavicle  0 -9.442270133e-015 7.951389973e-016
lhumerus  11.78040028 -13.7510004 73.56310272
lradius  2.456248283e-031 -2.536865864e-031 134.0749969
lwrist  -1.412450015e-030 1.765562519e-031 11.47430038
lhand  -1.496451383e-031 -27.76390076 20.11240005
lfingers  90 7.125020027 -90
lthumb  89.89689403 5.08795885 91.16245106
rclavicle  0 -9.442270133e-015 7.951389973e-016
rhumerus  24.84309959 17.63660049 -74.34329987
rradius  -2.217464086e-031 2.748035128e-031 128.901001
rwrist  1.059337512e-030 -3.531125038e-031 -3.78918004
rhand  -7.920061211e-032 -33.2840004 9.303460121
rfingers  -90 -7.125020027 -90
rthumb  -92.93752616 -24.25625642 -97.11982154
rfemur  -23.66130066 11.62790012 4.857220173
rtibia  -0 0 67.56919861
rfoot  -0 1.516710043 -16.80999947
rtoes  5.373923086 19.29304026 -105.8922705
lfemur  -38.26900101 6.697179794 -18.77820015
ltibia  -0 0 34.33319855
lfoot  -0 2.984159946 -7.498519897
ltoes  -4.250644065 -19.5611806 -102.515957
198
root  9.311222467 40.07066742 -2.290555624 -6.687988281 -71.06890106 11.934021
lowerback  20.76589966 0.8330649734 2.25342989
upperback  4.868140221 0.9179909825 -4.721350193
thorax  -6.178050041 0.2837910056 -6.652989864
lowerneck  -0.918923974 3.93611002 -0.2083809972
upperneck  9.792050362 4.849999905 3.649749994
head  3.200180054 2.476749897 1.364060044
lclavicle  0 -9.442270133e-015 7.951389973e-016
lhumerus  12.6821003 -13.86900043 71.96029663
lradius  2.43290052e-031 -2.559265343e-031 133.5500031
lwrist  0 -1.765562519e-031 12.00329971
lhand  -1.496451383e-031 -27.76390076 20.11240005
lfingers  90 7.125020027 -90
lthumb  89.89689403 5.08795885 91.16245106
rclavicle  0 -9.442270133e-015 7.951389973e-016
rhumerus  25.22540092 16.53440094 -75.6576004
rradius  -2.202177606e-031 2.760300315e-031 128.5829926
rwrist  1.059337512e-030 -1.765562519e-031 -3.170759916
rhand  -7.920061211e-032 -33.2840004 9.303460121
rfingers  -90 -7.125020027 -90
rthumb  -92.93752616 -24.25625642 -97.11982154
rfemur  -25.16659927 11.63399982 4.01116991
rtibia  -0 0 69.3117981
rfoot  -0 2.259449959 -13.32509995
rtoes  5.373923086 19.29304026 -105.8922705
lfemur  -38.17810059 7.555530071 -19.96369934
ltibia  -0 0 35.98379898
lfoot  4.415121892e-032 1.344529986 -5.533360004
ltoes  -4.250644065 -19.5611806 -102.515957
